<?xml version="1.0" encoding="UTF-8" standalone="no"?>
<!DOCTYPE svg PUBLIC "-//W3C//DTD SVG 1.1//EN"
 "http://www.w3.org/Graphics/SVG/1.1/DTD/svg11.dtd">
<!-- Generated by graphviz version 14.1.2 (20260124.0452)
 -->
<!-- Title: RiskOpportunityHeatmap Pages: 1 -->
<svg width="660pt" height="243pt"
 viewBox="7.00 4.00 653.00 240.00" xmlns="http://www.w3.org/2000/svg" xmlns:xlink="http://www.w3.org/1999/xlink">
<g id="graph0" class="graph" transform="scale(1 1) rotate(0) translate(11.2 235.85)">
<title>RiskOpportunityHeatmap</title>
<text xml:space="preserve" text-anchor="middle" x="319" y="-210.95" font-family="Times New Roman,serif" font-size="14.00">Risk/Opportunity Heatmap: Zeno&#39;s Planner</text>
<!-- matrix -->
<g id="node1" class="node">
<title>matrix</title>
<polygon fill="#333333" stroke="none" points="9,-168.25 9,-198.75 109,-198.75 109,-168.25 9,-168.25"/>
<polygon fill="none" stroke="black" points="9,-168.25 9,-198.75 109,-198.75 109,-168.25 9,-168.25"/>
<text xml:space="preserve" text-anchor="start" x="57.12" y="-178.45" font-family="Times New Roman,serif" font-size="14.00"> </text>
<polygon fill="#001f5c" stroke="none" points="109,-168.25 109,-198.75 369,-198.75 369,-168.25 109,-168.25"/>
<polygon fill="none" stroke="black" points="109,-168.25 109,-198.75 369,-198.75 369,-168.25 109,-168.25"/>
<text xml:space="preserve" text-anchor="start" x="171.12" y="-180.8" font-family="Times New Roman,serif" font-weight="bold" font-size="11.00" fill="white">OPPORTUNITIES (Impact)</text>
<polygon fill="#7f1d1d" stroke="none" points="369,-168.25 369,-198.75 629,-198.75 629,-168.25 369,-168.25"/>
<polygon fill="none" stroke="black" points="369,-168.25 369,-198.75 629,-198.75 629,-168.25 369,-168.25"/>
<text xml:space="preserve" text-anchor="start" x="460.38" y="-180.8" font-family="Times New Roman,serif" font-weight="bold" font-size="11.00" fill="white">RISKS (Impact)</text>
<polygon fill="#333333" stroke="none" points="9,-140.75 9,-168.25 109,-168.25 109,-140.75 9,-140.75"/>
<polygon fill="none" stroke="black" points="9,-140.75 9,-168.25 109,-168.25 109,-140.75 9,-140.75"/>
<text xml:space="preserve" text-anchor="start" x="22.62" y="-151.8" font-family="Times New Roman,serif" font-weight="bold" font-size="11.00" fill="white">LIKELIHOOD</text>
<polygon fill="#0052a3" stroke="none" points="109,-140.75 109,-168.25 161,-168.25 161,-140.75 109,-140.75"/>
<polygon fill="none" stroke="black" points="109,-140.75 109,-168.25 161,-168.25 161,-140.75 109,-140.75"/>
<text xml:space="preserve" text-anchor="start" x="132.38" y="-151.62" font-family="Times New Roman,serif" font-weight="bold" font-size="10.00" fill="white">5</text>
<polygon fill="#1d5ba1" stroke="none" points="161,-140.75 161,-168.25 213,-168.25 213,-140.75 161,-140.75"/>
<polygon fill="none" stroke="black" points="161,-140.75 161,-168.25 213,-168.25 213,-140.75 161,-140.75"/>
<text xml:space="preserve" text-anchor="start" x="184.38" y="-151.62" font-family="Times New Roman,serif" font-weight="bold" font-size="10.00" fill="white">4</text>
<polygon fill="#3b7cc0" stroke="none" points="213,-140.75 213,-168.25 265,-168.25 265,-140.75 213,-140.75"/>
<polygon fill="none" stroke="black" points="213,-140.75 213,-168.25 265,-168.25 265,-140.75 213,-140.75"/>
<text xml:space="preserve" text-anchor="start" x="236.38" y="-151.62" font-family="Times New Roman,serif" font-weight="bold" font-size="10.00" fill="white">3</text>
<polygon fill="#5a9fd9" stroke="none" points="265,-140.75 265,-168.25 317,-168.25 317,-140.75 265,-140.75"/>
<polygon fill="none" stroke="black" points="265,-140.75 265,-168.25 317,-168.25 317,-140.75 265,-140.75"/>
<text xml:space="preserve" text-anchor="start" x="288.38" y="-151.62" font-family="Times New Roman,serif" font-weight="bold" font-size="10.00" fill="white">2</text>
<polygon fill="#a8d0f0" stroke="none" points="317,-140.75 317,-168.25 369,-168.25 369,-140.75 317,-140.75"/>
<polygon fill="none" stroke="black" points="317,-140.75 317,-168.25 369,-168.25 369,-140.75 317,-140.75"/>
<text xml:space="preserve" text-anchor="start" x="340.38" y="-151.62" font-family="Times New Roman,serif" font-weight="bold" font-size="10.00">1</text>
<polygon fill="#fffaf0" stroke="none" points="369,-140.75 369,-168.25 421,-168.25 421,-140.75 369,-140.75"/>
<polygon fill="none" stroke="black" points="369,-140.75 369,-168.25 421,-168.25 421,-140.75 369,-140.75"/>
<text xml:space="preserve" text-anchor="start" x="392.38" y="-151.62" font-family="Times New Roman,serif" font-weight="bold" font-size="10.00">1</text>
<polygon fill="#ffd966" stroke="none" points="421,-140.75 421,-168.25 473,-168.25 473,-140.75 421,-140.75"/>
<polygon fill="none" stroke="black" points="421,-140.75 421,-168.25 473,-168.25 473,-140.75 421,-140.75"/>
<text xml:space="preserve" text-anchor="start" x="444.38" y="-151.62" font-family="Times New Roman,serif" font-weight="bold" font-size="10.00">2</text>
<polygon fill="#f5a623" stroke="none" points="473,-140.75 473,-168.25 525,-168.25 525,-140.75 473,-140.75"/>
<polygon fill="none" stroke="black" points="473,-140.75 473,-168.25 525,-168.25 525,-140.75 473,-140.75"/>
<text xml:space="preserve" text-anchor="start" x="496.38" y="-151.62" font-family="Times New Roman,serif" font-weight="bold" font-size="10.00" fill="white">3</text>
<polygon fill="#d97706" stroke="none" points="525,-140.75 525,-168.25 577,-168.25 577,-140.75 525,-140.75"/>
<polygon fill="none" stroke="black" points="525,-140.75 525,-168.25 577,-168.25 577,-140.75 525,-140.75"/>
<text xml:space="preserve" text-anchor="start" x="548.38" y="-151.62" font-family="Times New Roman,serif" font-weight="bold" font-size="10.00" fill="white">4</text>
<polygon fill="#991b1b" stroke="none" points="577,-140.75 577,-168.25 629,-168.25 629,-140.75 577,-140.75"/>
<polygon fill="none" stroke="black" points="577,-140.75 577,-168.25 629,-168.25 629,-140.75 577,-140.75"/>
<text xml:space="preserve" text-anchor="start" x="600.38" y="-151.62" font-family="Times New Roman,serif" font-weight="bold" font-size="10.00" fill="white">5</text>
<polygon fill="#f0f0f0" stroke="none" points="9,-115.5 9,-140.75 109,-140.75 109,-115.5 9,-115.5"/>
<polygon fill="none" stroke="black" points="9,-115.5 9,-140.75 109,-140.75 109,-115.5 9,-115.5"/>
<text xml:space="preserve" text-anchor="start" x="35.75" y="-125.25" font-family="Times New Roman,serif" font-weight="bold" font-size="10.00">Certain (5)</text>
<polygon fill="#0052a3" stroke="none" points="109,-115.5 109,-140.75 161,-140.75 161,-115.5 109,-115.5"/>
<polygon fill="none" stroke="black" points="109,-115.5 109,-140.75 161,-140.75 161,-115.5 109,-115.5"/>
<text xml:space="preserve" text-anchor="start" x="133.88" y="-124.83" font-family="Times New Roman,serif" font-size="9.00" fill="white"> </text>
<polygon fill="#1d5ba1" stroke="none" points="161,-115.5 161,-140.75 213,-140.75 213,-115.5 161,-115.5"/>
<polygon fill="none" stroke="black" points="161,-115.5 161,-140.75 213,-140.75 213,-115.5 161,-115.5"/>
<text xml:space="preserve" text-anchor="start" x="185.88" y="-124.83" font-family="Times New Roman,serif" font-size="9.00" fill="white"> </text>
<polygon fill="#3b7cc0" stroke="none" points="213,-115.5 213,-140.75 265,-140.75 265,-115.5 213,-115.5"/>
<polygon fill="none" stroke="black" points="213,-115.5 213,-140.75 265,-140.75 265,-115.5 213,-115.5"/>
<text xml:space="preserve" text-anchor="start" x="237.88" y="-124.83" font-family="Times New Roman,serif" font-size="9.00" fill="white"> </text>
<polygon fill="#5a9fd9" stroke="none" points="265,-115.5 265,-140.75 317,-140.75 317,-115.5 265,-115.5"/>
<polygon fill="none" stroke="black" points="265,-115.5 265,-140.75 317,-140.75 317,-115.5 265,-115.5"/>
<text xml:space="preserve" text-anchor="start" x="289.88" y="-124.83" font-family="Times New Roman,serif" font-size="9.00" fill="white"> </text>
<polygon fill="#a8d0f0" stroke="none" points="317,-115.5 317,-140.75 369,-140.75 369,-115.5 317,-115.5"/>
<polygon fill="none" stroke="black" points="317,-115.5 317,-140.75 369,-140.75 369,-115.5 317,-115.5"/>
<text xml:space="preserve" text-anchor="start" x="341.88" y="-124.83" font-family="Times New Roman,serif" font-size="9.00"> </text>
<polygon fill="#fefaf0" stroke="none" points="369,-115.5 369,-140.75 421,-140.75 421,-115.5 369,-115.5"/>
<polygon fill="none" stroke="black" points="369,-115.5 369,-140.75 421,-140.75 421,-115.5 369,-115.5"/>
<text xml:space="preserve" text-anchor="start" x="393.88" y="-124.83" font-family="Times New Roman,serif" font-size="9.00"> </text>
<polygon fill="#ffd966" stroke="none" points="421,-115.5 421,-140.75 473,-140.75 473,-115.5 421,-115.5"/>
<polygon fill="none" stroke="black" points="421,-115.5 421,-140.75 473,-140.75 473,-115.5 421,-115.5"/>
<text xml:space="preserve" text-anchor="start" x="445.88" y="-124.83" font-family="Times New Roman,serif" font-size="9.00"> </text>
<polygon fill="#f5a623" stroke="none" points="473,-115.5 473,-140.75 525,-140.75 525,-115.5 473,-115.5"/>
<polygon fill="none" stroke="black" points="473,-115.5 473,-140.75 525,-140.75 525,-115.5 473,-115.5"/>
<text xml:space="preserve" text-anchor="start" x="497.88" y="-124.83" font-family="Times New Roman,serif" font-size="9.00" fill="white"> </text>
<polygon fill="#d97706" stroke="none" points="525,-115.5 525,-140.75 577,-140.75 577,-115.5 525,-115.5"/>
<polygon fill="none" stroke="black" points="525,-115.5 525,-140.75 577,-140.75 577,-115.5 525,-115.5"/>
<text xml:space="preserve" text-anchor="start" x="549.88" y="-124.83" font-family="Times New Roman,serif" font-size="9.00" fill="white"> </text>
<polygon fill="#991b1b" stroke="none" points="577,-115.5 577,-140.75 629,-140.75 629,-115.5 577,-115.5"/>
<polygon fill="none" stroke="black" points="577,-115.5 577,-140.75 629,-140.75 629,-115.5 577,-115.5"/>
<text xml:space="preserve" text-anchor="start" x="601.88" y="-124.83" font-family="Times New Roman,serif" font-size="9.00" fill="white"> </text>
<polygon fill="#f5f5f5" stroke="none" points="9,-85.5 9,-115.5 109,-115.5 109,-85.5 9,-85.5"/>
<polygon fill="none" stroke="black" points="9,-85.5 9,-115.5 109,-115.5 109,-85.5 9,-85.5"/>
<text xml:space="preserve" text-anchor="start" x="38.38" y="-97.62" font-family="Times New Roman,serif" font-weight="bold" font-size="10.00">Likely (4)</text>
<polygon fill="#1a5ba6" stroke="none" points="109,-85.5 109,-115.5 161,-115.5 161,-85.5 109,-85.5"/>
<polygon fill="none" stroke="black" points="109,-85.5 109,-115.5 161,-115.5 161,-85.5 109,-85.5"/>
<text xml:space="preserve" text-anchor="start" x="125.62" y="-98.2" font-family="Times New Roman,serif" font-weight="bold" font-size="9.00" fill="white">O&#45;01</text>
<polygon fill="#2f6fb3" stroke="none" points="161,-85.5 161,-115.5 213,-115.5 213,-85.5 161,-85.5"/>
<polygon fill="none" stroke="black" points="161,-85.5 161,-115.5 213,-115.5 213,-85.5 161,-85.5"/>
<text xml:space="preserve" text-anchor="start" x="185.88" y="-97.2" font-family="Times New Roman,serif" font-size="9.00" fill="white"> </text>
<polygon fill="#4a8cc7" stroke="none" points="213,-85.5 213,-115.5 265,-115.5 265,-85.5 213,-85.5"/>
<polygon fill="none" stroke="black" points="213,-85.5 213,-115.5 265,-115.5 265,-85.5 213,-85.5"/>
<text xml:space="preserve" text-anchor="start" x="229.62" y="-98.2" font-family="Times New Roman,serif" font-weight="bold" font-size="9.00" fill="white">O&#45;04</text>
<polygon fill="#6aafde" stroke="none" points="265,-85.5 265,-115.5 317,-115.5 317,-85.5 265,-85.5"/>
<polygon fill="none" stroke="black" points="265,-85.5 265,-115.5 317,-115.5 317,-85.5 265,-85.5"/>
<text xml:space="preserve" text-anchor="start" x="289.88" y="-97.2" font-family="Times New Roman,serif" font-size="9.00" fill="white"> </text>
<polygon fill="#b5d9f7" stroke="none" points="317,-85.5 317,-115.5 369,-115.5 369,-85.5 317,-85.5"/>
<polygon fill="none" stroke="black" points="317,-85.5 317,-115.5 369,-115.5 369,-85.5 317,-85.5"/>
<text xml:space="preserve" text-anchor="start" x="341.88" y="-97.2" font-family="Times New Roman,serif" font-size="9.00"> </text>
<polygon fill="#fefbf1" stroke="none" points="369,-85.5 369,-115.5 421,-115.5 421,-85.5 369,-85.5"/>
<polygon fill="none" stroke="black" points="369,-85.5 369,-115.5 421,-115.5 421,-85.5 369,-85.5"/>
<text xml:space="preserve" text-anchor="start" x="393.88" y="-97.2" font-family="Times New Roman,serif" font-size="9.00"> </text>
<polygon fill="#ffe68d" stroke="none" points="421,-85.5 421,-115.5 473,-115.5 473,-85.5 421,-85.5"/>
<polygon fill="none" stroke="black" points="421,-85.5 421,-115.5 473,-115.5 473,-85.5 421,-85.5"/>
<text xml:space="preserve" text-anchor="start" x="445.88" y="-97.2" font-family="Times New Roman,serif" font-size="9.00"> </text>
<polygon fill="#f7b344" stroke="none" points="473,-85.5 473,-115.5 525,-115.5 525,-85.5 473,-85.5"/>
<polygon fill="none" stroke="black" points="473,-85.5 473,-115.5 525,-115.5 525,-85.5 473,-85.5"/>
<text xml:space="preserve" text-anchor="start" x="490.75" y="-101.9" font-family="Times New Roman,serif" font-weight="bold" font-size="8.00">R&#45;02</text>
<text xml:space="preserve" text-anchor="start" x="490.75" y="-93.9" font-family="Times New Roman,serif" font-weight="bold" font-size="8.00">R&#45;10</text>
<polygon fill="#dd8c21" stroke="none" points="525,-85.5 525,-115.5 577,-115.5 577,-85.5 525,-85.5"/>
<polygon fill="none" stroke="black" points="525,-85.5 525,-115.5 577,-115.5 577,-85.5 525,-85.5"/>
<text xml:space="preserve" text-anchor="start" x="549.88" y="-97.2" font-family="Times New Roman,serif" font-size="9.00" fill="white"> </text>
<polygon fill="#a82828" stroke="none" points="577,-85.5 577,-115.5 629,-115.5 629,-85.5 577,-85.5"/>
<polygon fill="none" stroke="black" points="577,-85.5 577,-115.5 629,-115.5 629,-85.5 577,-85.5"/>
<text xml:space="preserve" text-anchor="start" x="601.88" y="-97.2" font-family="Times New Roman,serif" font-size="9.00" fill="white"> </text>
<polygon fill="#fafafa" stroke="none" points="9,-55.5 9,-85.5 109,-85.5 109,-55.5 9,-55.5"/>
<polygon fill="none" stroke="black" points="9,-55.5 9,-85.5 109,-85.5 109,-55.5 9,-55.5"/>
<text xml:space="preserve" text-anchor="start" x="35" y="-67.62" font-family="Times New Roman,serif" font-weight="bold" font-size="10.00">Possible (3)</text>
<polygon fill="#2868b0" stroke="none" points="109,-55.5 109,-85.5 161,-85.5 161,-55.5 109,-55.5"/>
<polygon fill="none" stroke="black" points="109,-55.5 109,-85.5 161,-85.5 161,-55.5 109,-55.5"/>
<text xml:space="preserve" text-anchor="start" x="125.62" y="-68.2" font-family="Times New Roman,serif" font-weight="bold" font-size="9.00" fill="white">O&#45;02</text>
<polygon fill="#3d7dbf" stroke="none" points="161,-55.5 161,-85.5 213,-85.5 213,-55.5 161,-55.5"/>
<polygon fill="none" stroke="black" points="161,-55.5 161,-85.5 213,-85.5 213,-55.5 161,-55.5"/>
<text xml:space="preserve" text-anchor="start" x="178.75" y="-71.9" font-family="Times New Roman,serif" font-weight="bold" font-size="8.00" fill="white">O&#45;03</text>
<text xml:space="preserve" text-anchor="start" x="178.75" y="-63.9" font-family="Times New Roman,serif" font-weight="bold" font-size="8.00" fill="white">O&#45;05</text>
<polygon fill="#589ed2" stroke="none" points="213,-55.5 213,-85.5 265,-85.5 265,-55.5 213,-55.5"/>
<polygon fill="none" stroke="black" points="213,-55.5 213,-85.5 265,-85.5 265,-55.5 213,-55.5"/>
<text xml:space="preserve" text-anchor="start" x="230.75" y="-71.9" font-family="Times New Roman,serif" font-weight="bold" font-size="8.00" fill="white">O&#45;06</text>
<text xml:space="preserve" text-anchor="start" x="230.75" y="-63.9" font-family="Times New Roman,serif" font-weight="bold" font-size="8.00" fill="white">O&#45;08</text>
<polygon fill="#7abce9" stroke="none" points="265,-55.5 265,-85.5 317,-85.5 317,-55.5 265,-55.5"/>
<polygon fill="none" stroke="black" points="265,-55.5 265,-85.5 317,-85.5 317,-55.5 265,-55.5"/>
<text xml:space="preserve" text-anchor="start" x="289.88" y="-67.2" font-family="Times New Roman,serif" font-size="9.00"> </text>
<polygon fill="#c3e2fc" stroke="none" points="317,-55.5 317,-85.5 369,-85.5 369,-55.5 317,-55.5"/>
<polygon fill="none" stroke="black" points="317,-55.5 317,-85.5 369,-85.5 369,-55.5 317,-55.5"/>
<text xml:space="preserve" text-anchor="start" x="341.88" y="-67.2" font-family="Times New Roman,serif" font-size="9.00"> </text>
<polygon fill="#fffcf2" stroke="none" points="369,-55.5 369,-85.5 421,-85.5 421,-55.5 369,-55.5"/>
<polygon fill="none" stroke="black" points="369,-55.5 369,-85.5 421,-85.5 421,-55.5 369,-55.5"/>
<text xml:space="preserve" text-anchor="start" x="393.88" y="-67.2" font-family="Times New Roman,serif" font-size="9.00"> </text>
<polygon fill="#ffecb3" stroke="none" points="421,-55.5 421,-85.5 473,-85.5 473,-55.5 421,-55.5"/>
<polygon fill="none" stroke="black" points="421,-55.5 421,-85.5 473,-85.5 473,-55.5 421,-55.5"/>
<text xml:space="preserve" text-anchor="start" x="445.88" y="-67.2" font-family="Times New Roman,serif" font-size="9.00"> </text>
<polygon fill="#f9c268" stroke="none" points="473,-55.5 473,-85.5 525,-85.5 525,-55.5 473,-55.5"/>
<polygon fill="none" stroke="black" points="473,-55.5 473,-85.5 525,-85.5 525,-55.5 473,-55.5"/>
<text xml:space="preserve" text-anchor="start" x="489.62" y="-68.2" font-family="Times New Roman,serif" font-weight="bold" font-size="9.00">R&#45;07</text>
<polygon fill="#e5a03d" stroke="none" points="525,-55.5 525,-85.5 577,-85.5 577,-55.5 525,-55.5"/>
<polygon fill="none" stroke="black" points="525,-55.5 525,-85.5 577,-85.5 577,-55.5 525,-55.5"/>
<text xml:space="preserve" text-anchor="start" x="541.62" y="-68.2" font-family="Times New Roman,serif" font-weight="bold" font-size="9.00" fill="white">R&#45;03</text>
<polygon fill="#b93535" stroke="none" points="577,-55.5 577,-85.5 629,-85.5 629,-55.5 577,-55.5"/>
<polygon fill="none" stroke="black" points="577,-55.5 577,-85.5 629,-85.5 629,-55.5 577,-55.5"/>
<text xml:space="preserve" text-anchor="start" x="601.88" y="-67.2" font-family="Times New Roman,serif" font-size="9.00" fill="white"> </text>
<polygon fill="#f5f5f5" stroke="none" points="9,-30.25 9,-55.5 109,-55.5 109,-30.25 9,-30.25"/>
<polygon fill="none" stroke="black" points="9,-30.25 9,-55.5 109,-55.5 109,-30.25 9,-30.25"/>
<text xml:space="preserve" text-anchor="start" x="33.88" y="-40" font-family="Times New Roman,serif" font-weight="bold" font-size="10.00">Unlikely (2)</text>
<polygon fill="#3875ba" stroke="none" points="109,-30.25 109,-55.5 161,-55.5 161,-30.25 109,-30.25"/>
<polygon fill="none" stroke="black" points="109,-30.25 109,-55.5 161,-55.5 161,-30.25 109,-30.25"/>
<text xml:space="preserve" text-anchor="start" x="125.62" y="-40.58" font-family="Times New Roman,serif" font-weight="bold" font-size="9.00" fill="white">O&#45;07</text>
<polygon fill="#4d8ccb" stroke="none" points="161,-30.25 161,-55.5 213,-55.5 213,-30.25 161,-30.25"/>
<polygon fill="none" stroke="black" points="161,-30.25 161,-55.5 213,-55.5 213,-30.25 161,-30.25"/>
<text xml:space="preserve" text-anchor="start" x="185.88" y="-39.58" font-family="Times New Roman,serif" font-size="9.00" fill="white"> </text>
<polygon fill="#68acdd" stroke="none" points="213,-30.25 213,-55.5 265,-55.5 265,-30.25 213,-30.25"/>
<polygon fill="none" stroke="black" points="213,-30.25 213,-55.5 265,-55.5 265,-30.25 213,-30.25"/>
<text xml:space="preserve" text-anchor="start" x="237.88" y="-39.58" font-family="Times New Roman,serif" font-size="9.00" fill="white"> </text>
<polygon fill="#8accf0" stroke="none" points="265,-30.25 265,-55.5 317,-55.5 317,-30.25 265,-30.25"/>
<polygon fill="none" stroke="black" points="265,-30.25 265,-55.5 317,-55.5 317,-30.25 265,-30.25"/>
<text xml:space="preserve" text-anchor="start" x="289.88" y="-39.58" font-family="Times New Roman,serif" font-size="9.00"> </text>
<polygon fill="#d0eafc" stroke="none" points="317,-30.25 317,-55.5 369,-55.5 369,-30.25 317,-30.25"/>
<polygon fill="none" stroke="black" points="317,-30.25 317,-55.5 369,-55.5 369,-30.25 317,-30.25"/>
<text xml:space="preserve" text-anchor="start" x="341.88" y="-39.58" font-family="Times New Roman,serif" font-size="9.00"> </text>
<polygon fill="#fffef8" stroke="none" points="369,-30.25 369,-55.5 421,-55.5 421,-30.25 369,-30.25"/>
<polygon fill="none" stroke="black" points="369,-30.25 369,-55.5 421,-55.5 421,-30.25 369,-30.25"/>
<text xml:space="preserve" text-anchor="start" x="393.88" y="-39.58" font-family="Times New Roman,serif" font-size="9.00"> </text>
<polygon fill="#fff4d6" stroke="none" points="421,-30.25 421,-55.5 473,-55.5 473,-30.25 421,-30.25"/>
<polygon fill="none" stroke="black" points="421,-30.25 421,-55.5 473,-55.5 473,-30.25 421,-30.25"/>
<text xml:space="preserve" text-anchor="start" x="437.62" y="-40.58" font-family="Times New Roman,serif" font-weight="bold" font-size="9.00">R&#45;04</text>
<polygon fill="#fce4b3" stroke="none" points="473,-30.25 473,-55.5 525,-55.5 525,-30.25 473,-30.25"/>
<polygon fill="none" stroke="black" points="473,-30.25 473,-55.5 525,-55.5 525,-30.25 473,-30.25"/>
<text xml:space="preserve" text-anchor="start" x="497.88" y="-39.58" font-family="Times New Roman,serif" font-size="9.00"> </text>
<polygon fill="#edb454" stroke="none" points="525,-30.25 525,-55.5 577,-55.5 577,-30.25 525,-30.25"/>
<polygon fill="none" stroke="black" points="525,-30.25 525,-55.5 577,-55.5 577,-30.25 525,-30.25"/>
<text xml:space="preserve" text-anchor="start" x="549.88" y="-39.58" font-family="Times New Roman,serif" font-size="9.00"> </text>
<polygon fill="#c64242" stroke="none" points="577,-30.25 577,-55.5 629,-55.5 629,-30.25 577,-30.25"/>
<polygon fill="none" stroke="black" points="577,-30.25 577,-55.5 629,-55.5 629,-30.25 577,-30.25"/>
<text xml:space="preserve" text-anchor="start" x="593.62" y="-40.58" font-family="Times New Roman,serif" font-weight="bold" font-size="9.00" fill="white">R&#45;06</text>
<polygon fill="#f0f0f0" stroke="none" points="9,-5 9,-30.25 109,-30.25 109,-5 9,-5"/>
<polygon fill="none" stroke="black" points="9,-5 9,-30.25 109,-30.25 109,-5 9,-5"/>
<text xml:space="preserve" text-anchor="start" x="41.38" y="-14.75" font-family="Times New Roman,serif" font-weight="bold" font-size="10.00">Rare (1)</text>
<polygon fill="#4882c4" stroke="none" points="109,-5 109,-30.25 161,-30.25 161,-5 109,-5"/>
<polygon fill="none" stroke="black" points="109,-5 109,-30.25 161,-30.25 161,-5 109,-5"/>
<text xml:space="preserve" text-anchor="start" x="133.88" y="-14.32" font-family="Times New Roman,serif" font-size="9.00" fill="white"> </text>
<polygon fill="#5d9dd8" stroke="none" points="161,-5 161,-30.25 213,-30.25 213,-5 161,-5"/>
<polygon fill="none" stroke="black" points="161,-5 161,-30.25 213,-30.25 213,-5 161,-5"/>
<text xml:space="preserve" text-anchor="start" x="185.88" y="-14.32" font-family="Times New Roman,serif" font-size="9.00" fill="white"> </text>
<polygon fill="#78bbeb" stroke="none" points="213,-5 213,-30.25 265,-30.25 265,-5 213,-5"/>
<polygon fill="none" stroke="black" points="213,-5 213,-30.25 265,-30.25 265,-5 213,-5"/>
<text xml:space="preserve" text-anchor="start" x="237.88" y="-14.32" font-family="Times New Roman,serif" font-size="9.00"> </text>
<polygon fill="#9ad9f8" stroke="none" points="265,-5 265,-30.25 317,-30.25 317,-5 265,-5"/>
<polygon fill="none" stroke="black" points="265,-5 265,-30.25 317,-30.25 317,-5 265,-5"/>
<text xml:space="preserve" text-anchor="start" x="289.88" y="-14.32" font-family="Times New Roman,serif" font-size="9.00"> </text>
<polygon fill="#ddf5fe" stroke="none" points="317,-5 317,-30.25 369,-30.25 369,-5 317,-5"/>
<polygon fill="none" stroke="black" points="317,-5 317,-30.25 369,-30.25 369,-5 317,-5"/>
<text xml:space="preserve" text-anchor="start" x="341.88" y="-14.32" font-family="Times New Roman,serif" font-size="9.00"> </text>
<polygon fill="#fffff9" stroke="none" points="369,-5 369,-30.25 421,-30.25 421,-5 369,-5"/>
<polygon fill="none" stroke="black" points="369,-5 369,-30.25 421,-30.25 421,-5 369,-5"/>
<text xml:space="preserve" text-anchor="start" x="393.88" y="-14.32" font-family="Times New Roman,serif" font-size="9.00"> </text>
<polygon fill="#fffef0" stroke="none" points="421,-5 421,-30.25 473,-30.25 473,-5 421,-5"/>
<polygon fill="none" stroke="black" points="421,-5 421,-30.25 473,-30.25 473,-5 421,-5"/>
<text xml:space="preserve" text-anchor="start" x="437.62" y="-15.32" font-family="Times New Roman,serif" font-weight="bold" font-size="9.00">R&#45;09</text>
<polygon fill="#fef8ec" stroke="none" points="473,-5 473,-30.25 525,-30.25 525,-5 473,-5"/>
<polygon fill="none" stroke="black" points="473,-5 473,-30.25 525,-30.25 525,-5 473,-5"/>
<text xml:space="preserve" text-anchor="start" x="497.88" y="-14.32" font-family="Times New Roman,serif" font-size="9.00"> </text>
<polygon fill="#f5d89a" stroke="none" points="525,-5 525,-30.25 577,-30.25 577,-5 525,-5"/>
<polygon fill="none" stroke="black" points="525,-5 525,-30.25 577,-30.25 577,-5 525,-5"/>
<text xml:space="preserve" text-anchor="start" x="549.88" y="-14.32" font-family="Times New Roman,serif" font-size="9.00"> </text>
<polygon fill="#d45050" stroke="none" points="577,-5 577,-30.25 629,-30.25 629,-5 577,-5"/>
<polygon fill="none" stroke="black" points="577,-5 577,-30.25 629,-30.25 629,-5 577,-5"/>
<text xml:space="preserve" text-anchor="start" x="601.88" y="-14.32" font-family="Times New Roman,serif" font-size="9.00" fill="white"> </text>
<polygon fill="none" stroke="black" points="8,-4 8,-199.75 630,-199.75 630,-4 8,-4"/>
</g>
</g>
</svg>
